<svg width="329" height="182" viewBox="0 0 329 182" fill="none" xmlns="http://www.w3.org/2000/svg">
<path d="M86.8589 67.5215C86.8589 67.5215 96.7835 94.7309 96.8994 123.65C107.288 101.917 114.865 93.6008 114.865 93.6008L116.039 107.206C116.039 107.206 101.565 146.89 91.4228 137.066L86.8734 67.5215H86.8589Z" fill="#D8D8D8"/>
<path d="M37.7139 54.4965C37.7139 54.4965 10.0263 71.6654 11.736 82.8215C12.8081 89.8774 13.1558 88.2547 13.2573 86.1104C13.3732 83.8357 14.0396 81.6335 15.2132 79.7065C17.6328 75.7512 22.5589 69.579 31.3099 65.899C44.9871 60.147 44.2337 56.3655 44.2337 56.3655L36.7866 53.6272" fill="#442319"/>
<path d="M75.5288 28.2144C75.5288 28.2144 83.4975 51.0772 70.5883 55.6121C57.679 60.147 57.6935 56.3076 57.6935 56.3076L60.3159 32.7058L68.8207 28.2144H75.5288Z" fill="#442319"/>
<path d="M33.5557 33.1694C33.5557 33.1694 23.0081 51.5408 37.4676 56.0757C51.9271 60.6107 51.9126 56.7712 51.9126 56.7712L48.9715 33.1694L39.438 28.678L33.5412 33.1694H33.5557Z" fill="#442319"/>
<path d="M57.737 66.0874H55.8679C52.2024 66.0874 49.6958 66.5945 49.6958 62.9289V57.742C49.6958 54.0764 52.695 51.0773 56.3606 51.0773C60.0261 51.0773 63.0253 54.0764 63.0253 57.742V62.9289C63.0253 66.5945 61.4026 66.0874 57.737 66.0874Z" fill="#FFCEB6"/>
<path d="M50.0291 54.6415C50.3479 54.7284 63.0108 56.0179 63.0108 56.0179V60.7122L49.7249 56.2352L50.0291 54.6415Z" fill="#D3A08C"/>
<path d="M44.3786 63.7547L57.5342 75.8381L68.3571 63.7547L59.635 61.2047L44.3786 63.7547Z" fill="#FFCEB6"/>
<path d="M47.3921 62.3059C47.3921 62.3059 26.8619 63.407 27.0792 68.1448C27.1372 69.3473 33.6715 79.895 33.4687 92.2826C33.4542 93.6735 34.1351 96.6292 30.8317 105.047C22.2111 126.968 23.3991 174.186 23.3991 174.186C23.3991 174.186 85.7577 180.605 95.9286 170.028L84.2219 67.7826C84.2219 67.7826 72.9064 60.2196 64.4596 62.3059L62.9383 65.4934C61.2721 68.9996 56.6793 69.9993 53.6656 67.5073L47.3776 62.3059H47.3921Z" fill="#D9F2FC"/>
<path d="M44.0308 61.2916C44.0308 61.2916 29.296 63.1171 30.6724 66.406C32.0488 69.6949 46.5808 90.0657 27.7312 116.652L22.0373 179.199C22.0373 179.199 21.6461 181.198 63.3005 180.402C63.3005 180.402 67.0386 151.83 66.2417 149.628C65.4448 147.426 69.1829 178.982 69.3857 180.59C69.5885 182.198 95.7113 179.808 97.2761 175.606L84.9029 67.8983C84.9029 67.8983 75.2825 60.3063 69.1829 61.3061C69.1829 61.3061 70.9505 97.4839 63.4889 102.077C57.5921 89.0805 44.0453 61.3061 44.0453 61.3061L44.0308 61.2916Z" fill="#FF7301"/>
<path d="M25.0798 143.586C25.0798 143.586 85.1781 135.994 93.3786 142.413L94.5377 151.743C94.5377 151.743 37.2067 146.006 24.5292 152.236L25.0943 143.586H25.0798Z" fill="#FDD235"/>
<path d="M45.3928 31.1701H72.892C72.892 31.1701 78.2817 56.8293 59.1424 57.9594C42.6979 55.5543 41.5678 45.3399 41.5678 45.3399C41.5678 45.3399 35.5841 46.9336 34.338 41.6598C33.092 36.386 35.7144 34.2852 35.7144 34.2852C35.7144 34.2852 41.1331 32.619 42.9732 36.6613C44.8132 40.7036 44.0019 40.9064 44.0019 40.9064L45.3783 31.1556L45.3928 31.1701Z" fill="#FFCEB6"/>
<path d="M38.9309 43.007C40.8594 43.007 42.4227 41.4437 42.4227 39.5153C42.4227 37.5869 40.8594 36.0236 38.9309 36.0236C37.0025 36.0236 35.4392 37.5869 35.4392 39.5153C35.4392 41.4437 37.0025 43.007 38.9309 43.007Z" fill="#E5AF9A"/>
<path d="M66.9082 41.9494C68.3326 41.9494 69.4872 40.3342 69.4872 38.3418C69.4872 36.3493 68.3326 34.7341 66.9082 34.7341C65.4839 34.7341 64.3293 36.3493 64.3293 38.3418C64.3293 40.3342 65.4839 41.9494 66.9082 41.9494Z" fill="black"/>
<path d="M52.8833 41.9494C54.3076 41.9494 55.4622 40.3342 55.4622 38.3418C55.4622 36.3493 54.3076 34.7341 52.8833 34.7341C51.4589 34.7341 50.3043 36.3493 50.3043 38.3418C50.3043 40.3342 51.4589 41.9494 52.8833 41.9494Z" fill="black"/>
<path d="M52.1299 37.7913C52.77 37.7913 53.2889 37.2724 53.2889 36.6322C53.2889 35.9921 52.77 35.4731 52.1299 35.4731C51.4897 35.4731 50.9708 35.9921 50.9708 36.6322C50.9708 37.2724 51.4897 37.7913 52.1299 37.7913Z" fill="white"/>
<path d="M32.527 33.3868C32.527 33.3868 29.8756 17.2611 45.0016 5.26463C59.0264 -5.86255 77.6152 13.1319 79.6146 24.4184C79.8609 25.8238 80.7592 26.9539 81.9762 27.6204C85.2072 29.4025 80.3825 32.6624 78.1513 33.9809C77.5138 34.3576 76.8038 34.5894 76.0649 34.6618C71.3707 35.0675 52.3328 36.5308 45.6391 34.0533C44.8857 33.778 44.0888 33.6766 43.2919 33.778C37.5835 34.4735 32.6284 33.836 32.6284 33.836L32.5125 33.4013H32.527V33.3868Z" fill="#E5B833"/>
<path d="M32.2082 32.1406C32.2082 32.1406 29.5568 16.0149 44.6828 4.01841C58.7077 -7.10876 77.2965 11.8857 79.2959 23.1722C79.5422 24.5776 80.4405 25.7077 81.6575 26.3742C84.8884 28.1563 80.0638 31.4162 77.8325 32.7346C77.195 33.1113 76.4851 33.3432 75.7462 33.4156C71.0519 33.8213 52.014 35.2846 45.3203 32.8071C44.5669 32.5318 43.7701 32.4304 42.9732 32.5318C37.2647 33.2272 32.3096 32.5897 32.3096 32.5897L32.1937 32.1551L32.2082 32.1406Z" fill="#FFD03A"/>
<path d="M44.8422 3.7431C44.8422 3.7431 63.7063 8.06068 60.3304 24.8818C60.3304 24.8818 49.551 5.98882 44.0309 4.56895L44.8422 3.7431Z" fill="#C39227"/>
<path d="M44.4076 4.10543C43.9874 4.04747 49.8697 -2.4144 57.0271 0.990399C64.1844 4.3952 70.4869 15.5224 72.0516 27.7072C63.7642 28.1998 61.4895 28.3447 61.4895 28.3447C61.4895 28.3447 54.622 5.38042 44.4076 4.10543Z" fill="#E5B833"/>
<path d="M101.782 133.618L67.6616 124.331C64.3437 123.433 62.5616 120.376 63.7062 117.565L84.4393 67.0725C85.4535 64.595 88.7279 63.5518 91.669 64.7109L122.225 76.7653C124.819 77.794 126.268 80.5178 125.442 82.8505L108.693 130.242C107.766 132.865 104.665 134.386 101.768 133.604L101.782 133.618Z" fill="#0061ED"/>
<path d="M55.3174 120.057C60.7361 119.304 84.1785 114.841 69.4148 121.158C81.078 121.158 91.4808 132.923 71.3852 133.821L57.3893 131.344C56.8967 131.344 56.5779 133.473 56.4765 132.995L53.999 119.898C53.8976 119.333 54.7379 120.129 55.3174 120.057Z" fill="#FFCEB6"/>
<path d="M21.9069 121.187C21.9069 121.187 38.7281 85.0963 25.5 70.9121C25.5 70.9121 20.3421 66.8988 7.36043 102.656C-5.62127 138.414 1.13037 143.543 8.11383 143.471C32.527 143.224 57.4327 132.706 57.4327 132.706L55.158 117.594L21.8924 121.187H21.9069Z" fill="#D8D8D8"/>
<path d="M118.183 96.4405C120.936 95.9189 123.283 98.4689 122.587 101.193C121.602 105.047 119.661 109.9 115.966 111.523C110.156 114.088 103.564 99.1788 118.183 96.4405Z" fill="#FFCEB6"/>
<path d="M115.836 76.8089L96.2184 69.7965C94.248 69.101 93.3497 67.1161 94.2045 65.421L94.4653 64.8994C95.2912 63.2477 97.4644 62.5088 99.3335 63.2042L118.053 70.1297C119.806 70.7817 120.805 72.6362 120.284 74.3169L120.124 74.853C119.588 76.5771 117.676 77.4754 115.836 76.8234V76.8089Z" fill="#0E3059"/>
<path d="M60.0406 41.964C60.0406 41.964 62.2719 43.7606 62.2719 44.5574C62.2719 45.3543 60.7361 45.6441 60.7361 45.6441" stroke="black" stroke-width="0.493119" stroke-miterlimit="10"/>
<path d="M65.6187 49.5994C65.6187 49.5994 62.4022 54.1343 55.8389 49.5994" stroke="black" stroke-width="0.821865" stroke-miterlimit="10"/>
<path d="M66.1259 37.9939C66.766 37.9939 67.2849 37.475 67.2849 36.8349C67.2849 36.1947 66.766 35.6758 66.1259 35.6758C65.4857 35.6758 64.9668 36.1947 64.9668 36.8349C64.9668 37.475 65.4857 37.9939 66.1259 37.9939Z" fill="white"/>
<g clip-path="url(#clip0_648_2610)">
<path d="M303.874 18H183.143C169.814 18 159 28.8347 159 42.1886V111.181C159 124.535 169.814 135.37 183.143 135.37H195.403C199.594 143.866 201.205 155.212 187.137 163C187.137 163 224.049 153.713 230.771 135.37H303.857C317.186 135.37 328 124.535 328 111.181V42.1886C328 28.8347 317.186 18 303.857 18H303.874Z" fill="#58CC02"/>
<path d="M192.748 53V41.72H194.796V46.424H200.604V41.72H202.652V53H200.604V48.136H194.796V53H192.748ZM204.803 43.496V41.544H207.043V43.496H204.803ZM204.931 53V45.176H206.931V53H204.931ZM209.81 55.128L208.994 54.488C209.228 54.2533 209.41 54.0293 209.538 53.816C209.666 53.6133 209.756 53.4053 209.81 53.192C209.874 52.9787 209.906 52.76 209.906 52.536L210.338 53H208.834V50.776H211.074V52.248C211.074 52.6107 211.031 52.952 210.946 53.272C210.871 53.592 210.743 53.9013 210.562 54.2C210.38 54.5093 210.13 54.8187 209.81 55.128ZM217.483 53V41.72H219.531V53H217.483ZM228.679 53.16C228.114 53.16 227.607 53.0533 227.159 52.84C226.722 52.616 226.375 52.3173 226.119 51.944C225.874 51.5707 225.751 51.1493 225.751 50.68C225.751 50.104 225.901 49.6507 226.199 49.32C226.498 48.9787 226.983 48.7333 227.655 48.584C228.327 48.4347 229.229 48.36 230.359 48.36H231.159V49.512H230.375C229.874 49.512 229.453 49.5333 229.111 49.576C228.77 49.608 228.493 49.6667 228.279 49.752C228.077 49.8267 227.927 49.9333 227.831 50.072C227.746 50.2107 227.703 50.3813 227.703 50.584C227.703 50.936 227.826 51.224 228.071 51.448C228.317 51.672 228.658 51.784 229.095 51.784C229.447 51.784 229.757 51.704 230.023 51.544C230.301 51.3733 230.519 51.144 230.679 50.856C230.839 50.568 230.919 50.2373 230.919 49.864V48.024C230.919 47.4907 230.802 47.1067 230.567 46.872C230.333 46.6373 229.938 46.52 229.383 46.52C228.946 46.52 228.498 46.5893 228.039 46.728C227.581 46.856 227.117 47.0587 226.647 47.336L226.071 45.976C226.349 45.784 226.674 45.6187 227.047 45.48C227.431 45.3307 227.831 45.2187 228.247 45.144C228.674 45.0587 229.074 45.016 229.447 45.016C230.215 45.016 230.845 45.1333 231.335 45.368C231.837 45.6027 232.21 45.96 232.455 46.44C232.701 46.9093 232.823 47.5173 232.823 48.264V53H230.951V51.336H231.079C231.005 51.7093 230.855 52.0347 230.631 52.312C230.418 52.5787 230.146 52.7867 229.815 52.936C229.485 53.0853 229.106 53.16 228.679 53.16ZM234.885 53V45.176H236.837V46.744H236.661C236.8 46.3813 236.992 46.072 237.237 45.816C237.483 45.56 237.776 45.3627 238.117 45.224C238.459 45.0853 238.837 45.016 239.253 45.016C239.883 45.016 240.4 45.1653 240.805 45.464C241.211 45.7627 241.493 46.2213 241.653 46.84H241.429C241.643 46.2747 241.995 45.832 242.485 45.512C242.976 45.1813 243.541 45.016 244.181 45.016C244.779 45.016 245.269 45.1333 245.653 45.368C246.048 45.6027 246.341 45.96 246.533 46.44C246.725 46.9093 246.821 47.5067 246.821 48.232V53H244.821V48.312C244.821 47.7147 244.72 47.2773 244.517 47C244.325 46.7227 243.995 46.584 243.525 46.584C243.184 46.584 242.885 46.6693 242.629 46.84C242.373 47 242.176 47.2347 242.037 47.544C241.909 47.8533 241.845 48.2267 241.845 48.664V53H239.845V48.312C239.845 47.7147 239.744 47.2773 239.541 47C239.349 46.7227 239.024 46.584 238.565 46.584C238.213 46.584 237.909 46.6693 237.653 46.84C237.408 47 237.216 47.2347 237.077 47.544C236.949 47.8533 236.885 48.2267 236.885 48.664V53H234.885ZM252.173 53L257.277 41.72H258.957L264.061 53H261.981L260.621 49.832L261.485 50.392H254.733L255.597 49.832L254.253 53H252.173ZM258.093 43.944L255.853 49.272L255.437 48.76H260.781L260.381 49.272L258.125 43.944H258.093ZM265.103 53V45.176H267.055V46.744H266.879C267.114 46.1787 267.477 45.752 267.967 45.464C268.469 45.1653 269.034 45.016 269.663 45.016C270.293 45.016 270.81 45.1333 271.215 45.368C271.621 45.6027 271.925 45.96 272.127 46.44C272.33 46.9093 272.431 47.5067 272.431 48.232V53H270.431V48.328C270.431 47.9227 270.378 47.592 270.271 47.336C270.175 47.08 270.021 46.8933 269.807 46.776C269.605 46.648 269.343 46.584 269.023 46.584C268.639 46.584 268.303 46.6693 268.015 46.84C267.727 47 267.503 47.2347 267.343 47.544C267.183 47.8427 267.103 48.1947 267.103 48.6V53H265.103ZM274.463 53V45.176H276.415V46.744H276.239C276.473 46.1787 276.836 45.752 277.327 45.464C277.828 45.1653 278.393 45.016 279.023 45.016C279.652 45.016 280.169 45.1333 280.575 45.368C280.98 45.6027 281.284 45.96 281.487 46.44C281.689 46.9093 281.791 47.5067 281.791 48.232V53H279.791V48.328C279.791 47.9227 279.737 47.592 279.631 47.336C279.535 47.08 279.38 46.8933 279.167 46.776C278.964 46.648 278.703 46.584 278.383 46.584C277.999 46.584 277.663 46.6693 277.375 46.84C277.087 47 276.863 47.2347 276.703 47.544C276.543 47.8427 276.463 48.1947 276.463 48.6V53H274.463ZM286.398 53.16C285.833 53.16 285.326 53.0533 284.878 52.84C284.441 52.616 284.094 52.3173 283.838 51.944C283.593 51.5707 283.47 51.1493 283.47 50.68C283.47 50.104 283.619 49.6507 283.918 49.32C284.217 48.9787 284.702 48.7333 285.374 48.584C286.046 48.4347 286.947 48.36 288.078 48.36H288.878V49.512H288.094C287.593 49.512 287.171 49.5333 286.83 49.576C286.489 49.608 286.211 49.6667 285.998 49.752C285.795 49.8267 285.646 49.9333 285.55 50.072C285.465 50.2107 285.422 50.3813 285.422 50.584C285.422 50.936 285.545 51.224 285.79 51.448C286.035 51.672 286.377 51.784 286.814 51.784C287.166 51.784 287.475 51.704 287.742 51.544C288.019 51.3733 288.238 51.144 288.398 50.856C288.558 50.568 288.638 50.2373 288.638 49.864V48.024C288.638 47.4907 288.521 47.1067 288.286 46.872C288.051 46.6373 287.657 46.52 287.102 46.52C286.665 46.52 286.217 46.5893 285.758 46.728C285.299 46.856 284.835 47.0587 284.366 47.336L283.79 45.976C284.067 45.784 284.393 45.6187 284.766 45.48C285.15 45.3307 285.55 45.2187 285.966 45.144C286.393 45.0587 286.793 45.016 287.166 45.016C287.934 45.016 288.563 45.1333 289.054 45.368C289.555 45.6027 289.929 45.96 290.174 46.44C290.419 46.9093 290.542 47.5173 290.542 48.264V53H288.67V51.336H288.798C288.723 51.7093 288.574 52.0347 288.35 52.312C288.137 52.5787 287.865 52.7867 287.534 52.936C287.203 53.0853 286.825 53.16 286.398 53.16ZM292.908 49.656L292.284 41.72H294.748L294.124 49.656H292.908ZM292.396 53V50.776H294.636V53H292.396ZM198.269 85V76.54H199.253V84.136H203.561V85H198.269ZM207.222 85.108C206.606 85.108 206.074 84.988 205.626 84.748C205.186 84.5 204.842 84.152 204.594 83.704C204.354 83.256 204.234 82.72 204.234 82.096C204.234 81.488 204.354 80.96 204.594 80.512C204.834 80.056 205.162 79.7 205.578 79.444C206.002 79.188 206.49 79.06 207.042 79.06C207.57 79.06 208.022 79.176 208.398 79.408C208.774 79.64 209.062 79.968 209.262 80.392C209.47 80.816 209.574 81.324 209.574 81.916V82.288H204.978V81.652H208.926L208.734 81.808C208.734 81.168 208.59 80.672 208.302 80.32C208.022 79.96 207.61 79.78 207.066 79.78C206.658 79.78 206.31 79.876 206.022 80.068C205.742 80.252 205.53 80.512 205.386 80.848C205.242 81.176 205.17 81.56 205.17 82V82.072C205.17 82.56 205.246 82.972 205.398 83.308C205.558 83.644 205.794 83.9 206.106 84.076C206.418 84.244 206.79 84.328 207.222 84.328C207.566 84.328 207.898 84.276 208.218 84.172C208.546 84.06 208.854 83.88 209.142 83.632L209.478 84.316C209.214 84.556 208.878 84.748 208.47 84.892C208.062 85.036 207.646 85.108 207.222 85.108ZM213.321 85.108C212.633 85.108 212.117 84.924 211.773 84.556C211.429 84.188 211.257 83.664 211.257 82.984V79.924H210.117V79.168H211.257V77.38H212.229V79.168H214.077V79.924H212.229V82.888C212.229 83.344 212.325 83.692 212.517 83.932C212.709 84.164 213.021 84.28 213.453 84.28C213.581 84.28 213.709 84.264 213.837 84.232C213.965 84.2 214.081 84.168 214.185 84.136L214.353 84.88C214.249 84.936 214.097 84.988 213.897 85.036C213.697 85.084 213.505 85.108 213.321 85.108ZM215.466 79.144L215.022 78.784C215.166 78.64 215.274 78.5 215.346 78.364C215.426 78.228 215.478 78.096 215.502 77.968C215.534 77.84 215.55 77.708 215.55 77.572L215.85 77.764H214.974V76.54H216.198V77.404C216.198 77.62 216.174 77.828 216.126 78.028C216.086 78.22 216.014 78.408 215.91 78.592C215.806 78.776 215.658 78.96 215.466 79.144ZM219.465 85.108C219.161 85.108 218.865 85.076 218.577 85.012C218.297 84.956 218.033 84.876 217.785 84.772C217.545 84.66 217.337 84.528 217.161 84.376L217.473 83.692C217.665 83.844 217.873 83.972 218.097 84.076C218.321 84.172 218.549 84.244 218.781 84.292C219.013 84.34 219.249 84.364 219.489 84.364C219.945 84.364 220.289 84.28 220.521 84.112C220.753 83.944 220.869 83.716 220.869 83.428C220.869 83.204 220.793 83.028 220.641 82.9C220.489 82.764 220.249 82.66 219.921 82.588L218.829 82.348C218.325 82.244 217.949 82.064 217.701 81.808C217.461 81.552 217.341 81.22 217.341 80.812C217.341 80.452 217.433 80.144 217.617 79.888C217.809 79.624 218.077 79.42 218.421 79.276C218.765 79.132 219.165 79.06 219.621 79.06C219.893 79.06 220.153 79.088 220.401 79.144C220.649 79.2 220.881 79.284 221.097 79.396C221.321 79.5 221.513 79.632 221.673 79.792L221.349 80.476C221.197 80.332 221.025 80.212 220.833 80.116C220.641 80.012 220.441 79.936 220.233 79.888C220.033 79.832 219.829 79.804 219.621 79.804C219.173 79.804 218.833 79.892 218.601 80.068C218.369 80.244 218.253 80.476 218.253 80.764C218.253 80.988 218.325 81.172 218.469 81.316C218.613 81.46 218.837 81.564 219.141 81.628L220.233 81.856C220.753 81.968 221.141 82.148 221.397 82.396C221.661 82.636 221.793 82.964 221.793 83.38C221.793 83.732 221.697 84.04 221.505 84.304C221.313 84.56 221.041 84.76 220.689 84.904C220.345 85.04 219.937 85.108 219.465 85.108ZM228.42 85.108C227.948 85.108 227.556 85.024 227.244 84.856C226.94 84.68 226.708 84.42 226.548 84.076C226.396 83.732 226.32 83.304 226.32 82.792V79.168H227.292V82.78C227.292 83.124 227.336 83.412 227.424 83.644C227.52 83.868 227.668 84.036 227.868 84.148C228.068 84.252 228.316 84.304 228.612 84.304C228.948 84.304 229.24 84.228 229.488 84.076C229.736 83.924 229.932 83.712 230.076 83.44C230.22 83.168 230.292 82.848 230.292 82.48V79.168H231.264V85H230.316V83.656H230.472C230.312 84.128 230.048 84.488 229.68 84.736C229.32 84.984 228.9 85.108 228.42 85.108ZM233.083 85V79.168H234.031V80.464H233.899C234.067 80 234.339 79.652 234.715 79.42C235.099 79.18 235.539 79.06 236.035 79.06C236.499 79.06 236.883 79.144 237.187 79.312C237.499 79.472 237.731 79.724 237.883 80.068C238.035 80.412 238.111 80.844 238.111 81.364V85H237.139V81.424C237.139 81.064 237.091 80.768 236.995 80.536C236.907 80.304 236.763 80.132 236.563 80.02C236.371 79.908 236.119 79.852 235.807 79.852C235.455 79.852 235.147 79.928 234.883 80.08C234.619 80.232 234.415 80.444 234.271 80.716C234.127 80.988 234.055 81.308 234.055 81.676V85H233.083ZM242.123 85.108C241.603 85.108 241.147 84.984 240.755 84.736C240.371 84.488 240.071 84.14 239.855 83.692C239.647 83.236 239.543 82.7 239.543 82.084C239.543 81.46 239.647 80.924 239.855 80.476C240.071 80.02 240.371 79.672 240.755 79.432C241.147 79.184 241.603 79.06 242.123 79.06C242.651 79.06 243.103 79.192 243.479 79.456C243.855 79.72 244.107 80.076 244.235 80.524H244.103V76.54H245.075V85H244.127V83.608H244.247C244.119 84.064 243.863 84.428 243.479 84.7C243.103 84.972 242.651 85.108 242.123 85.108ZM242.327 84.328C242.879 84.328 243.315 84.136 243.635 83.752C243.963 83.36 244.127 82.804 244.127 82.084C244.127 81.356 243.963 80.8 243.635 80.416C243.315 80.032 242.879 79.84 242.327 79.84C241.783 79.84 241.347 80.032 241.019 80.416C240.691 80.8 240.527 81.356 240.527 82.084C240.527 82.804 240.691 83.36 241.019 83.752C241.347 84.136 241.783 84.328 242.327 84.328ZM249.527 85.108C248.911 85.108 248.379 84.988 247.931 84.748C247.491 84.5 247.147 84.152 246.899 83.704C246.659 83.256 246.539 82.72 246.539 82.096C246.539 81.488 246.659 80.96 246.899 80.512C247.139 80.056 247.467 79.7 247.883 79.444C248.307 79.188 248.795 79.06 249.347 79.06C249.875 79.06 250.327 79.176 250.703 79.408C251.079 79.64 251.367 79.968 251.567 80.392C251.775 80.816 251.879 81.324 251.879 81.916V82.288H247.283V81.652H251.231L251.039 81.808C251.039 81.168 250.895 80.672 250.607 80.32C250.327 79.96 249.915 79.78 249.371 79.78C248.963 79.78 248.615 79.876 248.327 80.068C248.047 80.252 247.835 80.512 247.691 80.848C247.547 81.176 247.475 81.56 247.475 82V82.072C247.475 82.56 247.551 82.972 247.703 83.308C247.863 83.644 248.099 83.9 248.411 84.076C248.723 84.244 249.095 84.328 249.527 84.328C249.871 84.328 250.203 84.276 250.523 84.172C250.851 84.06 251.159 83.88 251.447 83.632L251.783 84.316C251.519 84.556 251.183 84.748 250.775 84.892C250.367 85.036 249.951 85.108 249.527 85.108ZM253.286 85V79.168H254.234V80.548H254.114C254.25 80.076 254.486 79.72 254.822 79.48C255.158 79.232 255.602 79.088 256.154 79.048L256.502 79.012L256.574 79.852L255.962 79.924C255.418 79.972 254.998 80.148 254.702 80.452C254.414 80.748 254.27 81.156 254.27 81.676V85H253.286ZM259.496 85.108C259.192 85.108 258.896 85.076 258.608 85.012C258.328 84.956 258.064 84.876 257.816 84.772C257.576 84.66 257.368 84.528 257.192 84.376L257.504 83.692C257.696 83.844 257.904 83.972 258.128 84.076C258.352 84.172 258.58 84.244 258.812 84.292C259.044 84.34 259.28 84.364 259.52 84.364C259.976 84.364 260.32 84.28 260.552 84.112C260.784 83.944 260.9 83.716 260.9 83.428C260.9 83.204 260.824 83.028 260.672 82.9C260.52 82.764 260.28 82.66 259.952 82.588L258.86 82.348C258.356 82.244 257.98 82.064 257.732 81.808C257.492 81.552 257.372 81.22 257.372 80.812C257.372 80.452 257.464 80.144 257.648 79.888C257.84 79.624 258.108 79.42 258.452 79.276C258.796 79.132 259.196 79.06 259.652 79.06C259.924 79.06 260.184 79.088 260.432 79.144C260.68 79.2 260.912 79.284 261.128 79.396C261.352 79.5 261.544 79.632 261.704 79.792L261.38 80.476C261.228 80.332 261.056 80.212 260.864 80.116C260.672 80.012 260.472 79.936 260.264 79.888C260.064 79.832 259.86 79.804 259.652 79.804C259.204 79.804 258.864 79.892 258.632 80.068C258.4 80.244 258.284 80.476 258.284 80.764C258.284 80.988 258.356 81.172 258.5 81.316C258.644 81.46 258.868 81.564 259.172 81.628L260.264 81.856C260.784 81.968 261.172 82.148 261.428 82.396C261.692 82.636 261.824 82.964 261.824 83.38C261.824 83.732 261.728 84.04 261.536 84.304C261.344 84.56 261.072 84.76 260.72 84.904C260.376 85.04 259.968 85.108 259.496 85.108ZM265.587 85.108C264.899 85.108 264.383 84.924 264.039 84.556C263.695 84.188 263.523 83.664 263.523 82.984V79.924H262.383V79.168H263.523V77.38H264.495V79.168H266.343V79.924H264.495V82.888C264.495 83.344 264.591 83.692 264.783 83.932C264.975 84.164 265.287 84.28 265.719 84.28C265.847 84.28 265.975 84.264 266.103 84.232C266.231 84.2 266.347 84.168 266.451 84.136L266.619 84.88C266.515 84.936 266.363 84.988 266.163 85.036C265.963 85.084 265.771 85.108 265.587 85.108ZM269.278 85.108C268.878 85.108 268.518 85.032 268.198 84.88C267.886 84.72 267.638 84.504 267.454 84.232C267.27 83.96 267.178 83.656 267.178 83.32C267.178 82.888 267.286 82.548 267.502 82.3C267.726 82.052 268.09 81.876 268.594 81.772C269.106 81.668 269.802 81.616 270.682 81.616H271.222V82.252H270.694C270.206 82.252 269.798 82.268 269.47 82.3C269.142 82.332 268.882 82.388 268.69 82.468C268.498 82.548 268.362 82.652 268.282 82.78C268.202 82.908 268.162 83.068 268.162 83.26C268.162 83.588 268.274 83.856 268.498 84.064C268.73 84.272 269.042 84.376 269.434 84.376C269.754 84.376 270.034 84.3 270.274 84.148C270.522 83.996 270.714 83.788 270.85 83.524C270.994 83.26 271.066 82.956 271.066 82.612V81.244C271.066 80.748 270.966 80.392 270.766 80.176C270.566 79.952 270.238 79.84 269.782 79.84C269.43 79.84 269.09 79.892 268.762 79.996C268.434 80.092 268.098 80.252 267.754 80.476L267.418 79.768C267.626 79.624 267.862 79.5 268.126 79.396C268.39 79.284 268.666 79.2 268.954 79.144C269.242 79.088 269.518 79.06 269.782 79.06C270.286 79.06 270.702 79.144 271.03 79.312C271.358 79.472 271.602 79.72 271.762 80.056C271.922 80.384 272.002 80.808 272.002 81.328V85H271.09V83.644H271.198C271.134 83.948 271.01 84.208 270.826 84.424C270.65 84.64 270.43 84.808 270.166 84.928C269.902 85.048 269.606 85.108 269.278 85.108ZM273.805 85V79.168H274.753V80.464H274.621C274.789 80 275.061 79.652 275.437 79.42C275.821 79.18 276.261 79.06 276.757 79.06C277.221 79.06 277.605 79.144 277.909 79.312C278.221 79.472 278.453 79.724 278.605 80.068C278.757 80.412 278.833 80.844 278.833 81.364V85H277.861V81.424C277.861 81.064 277.813 80.768 277.717 80.536C277.629 80.304 277.485 80.132 277.285 80.02C277.093 79.908 276.841 79.852 276.529 79.852C276.177 79.852 275.869 79.928 275.605 80.08C275.341 80.232 275.137 80.444 274.993 80.716C274.849 80.988 274.777 81.308 274.777 81.676V85H273.805ZM282.846 85.108C282.326 85.108 281.87 84.984 281.478 84.736C281.094 84.488 280.794 84.14 280.578 83.692C280.37 83.236 280.266 82.7 280.266 82.084C280.266 81.46 280.37 80.924 280.578 80.476C280.794 80.02 281.094 79.672 281.478 79.432C281.87 79.184 282.326 79.06 282.846 79.06C283.374 79.06 283.826 79.192 284.202 79.456C284.578 79.72 284.83 80.076 284.958 80.524H284.826V76.54H285.798V85H284.85V83.608H284.97C284.842 84.064 284.586 84.428 284.202 84.7C283.826 84.972 283.374 85.108 282.846 85.108ZM283.05 84.328C283.602 84.328 284.038 84.136 284.358 83.752C284.686 83.36 284.85 82.804 284.85 82.084C284.85 81.356 284.686 80.8 284.358 80.416C284.038 80.032 283.602 79.84 283.05 79.84C282.506 79.84 282.07 80.032 281.742 80.416C281.414 80.8 281.25 81.356 281.25 82.084C281.25 82.804 281.414 83.36 281.742 83.752C282.07 84.136 282.506 84.328 283.05 84.328ZM199.793 101.108C199.177 101.108 198.645 100.988 198.197 100.748C197.757 100.5 197.413 100.152 197.165 99.704C196.925 99.256 196.805 98.72 196.805 98.096C196.805 97.488 196.925 96.96 197.165 96.512C197.405 96.056 197.733 95.7 198.149 95.444C198.573 95.188 199.061 95.06 199.613 95.06C200.141 95.06 200.593 95.176 200.969 95.408C201.345 95.64 201.633 95.968 201.833 96.392C202.041 96.816 202.145 97.324 202.145 97.916V98.288H197.549V97.652H201.497L201.305 97.808C201.305 97.168 201.161 96.672 200.873 96.32C200.593 95.96 200.181 95.78 199.637 95.78C199.229 95.78 198.881 95.876 198.593 96.068C198.313 96.252 198.101 96.512 197.957 96.848C197.813 97.176 197.741 97.56 197.741 98V98.072C197.741 98.56 197.817 98.972 197.969 99.308C198.129 99.644 198.365 99.9 198.677 100.076C198.989 100.244 199.361 100.328 199.793 100.328C200.137 100.328 200.469 100.276 200.789 100.172C201.117 100.06 201.425 99.88 201.713 99.632L202.049 100.316C201.785 100.556 201.449 100.748 201.041 100.892C200.633 101.036 200.217 101.108 199.793 101.108ZM205.197 101L202.689 95.168H203.745L205.833 100.28H205.509L207.633 95.168H208.629L206.109 101H205.197ZM212.203 101.108C211.587 101.108 211.055 100.988 210.607 100.748C210.167 100.5 209.823 100.152 209.575 99.704C209.335 99.256 209.215 98.72 209.215 98.096C209.215 97.488 209.335 96.96 209.575 96.512C209.815 96.056 210.143 95.7 210.559 95.444C210.983 95.188 211.471 95.06 212.023 95.06C212.551 95.06 213.003 95.176 213.379 95.408C213.755 95.64 214.043 95.968 214.243 96.392C214.451 96.816 214.555 97.324 214.555 97.916V98.288H209.959V97.652H213.907L213.715 97.808C213.715 97.168 213.571 96.672 213.283 96.32C213.003 95.96 212.591 95.78 212.047 95.78C211.639 95.78 211.291 95.876 211.003 96.068C210.723 96.252 210.511 96.512 210.367 96.848C210.223 97.176 210.151 97.56 210.151 98V98.072C210.151 98.56 210.227 98.972 210.379 99.308C210.539 99.644 210.775 99.9 211.087 100.076C211.399 100.244 211.771 100.328 212.203 100.328C212.547 100.328 212.879 100.276 213.199 100.172C213.527 100.06 213.835 99.88 214.123 99.632L214.459 100.316C214.195 100.556 213.859 100.748 213.451 100.892C213.043 101.036 212.627 101.108 212.203 101.108ZM215.962 101V95.168H216.91V96.548H216.79C216.926 96.076 217.162 95.72 217.498 95.48C217.834 95.232 218.278 95.088 218.83 95.048L219.178 95.012L219.25 95.852L218.638 95.924C218.094 95.972 217.674 96.148 217.378 96.452C217.09 96.748 216.946 97.156 216.946 97.676V101H215.962ZM221.298 103.16L222.39 100.7V101.12L219.834 95.168H220.89L222.978 100.28H222.654L224.766 95.168H225.786L222.318 103.16H221.298ZM229.247 101.108C228.559 101.108 228.043 100.924 227.699 100.556C227.355 100.188 227.183 99.664 227.183 98.984V95.924H226.043V95.168H227.183V93.38H228.155V95.168H230.003V95.924H228.155V98.888C228.155 99.344 228.251 99.692 228.443 99.932C228.635 100.164 228.947 100.28 229.379 100.28C229.507 100.28 229.635 100.264 229.763 100.232C229.891 100.2 230.007 100.168 230.111 100.136L230.279 100.88C230.175 100.936 230.023 100.988 229.823 101.036C229.623 101.084 229.431 101.108 229.247 101.108ZM231.102 101V92.54H232.074V96.464H231.918C232.086 96 232.358 95.652 232.734 95.42C233.118 95.18 233.558 95.06 234.054 95.06C234.518 95.06 234.902 95.144 235.206 95.312C235.518 95.48 235.75 95.736 235.902 96.08C236.054 96.416 236.13 96.844 236.13 97.364V101H235.158V97.424C235.158 97.064 235.11 96.768 235.014 96.536C234.926 96.304 234.782 96.132 234.582 96.02C234.39 95.908 234.138 95.852 233.826 95.852C233.474 95.852 233.166 95.928 232.902 96.08C232.638 96.232 232.434 96.444 232.29 96.716C232.146 96.988 232.074 97.308 232.074 97.676V101H231.102ZM237.803 93.716V92.624H239.003V93.716H237.803ZM237.923 101V95.168H238.895V101H237.923ZM240.712 101V95.168H241.66V96.464H241.528C241.696 96 241.968 95.652 242.344 95.42C242.728 95.18 243.168 95.06 243.664 95.06C244.128 95.06 244.512 95.144 244.816 95.312C245.128 95.472 245.36 95.724 245.512 96.068C245.664 96.412 245.74 96.844 245.74 97.364V101H244.768V97.424C244.768 97.064 244.72 96.768 244.624 96.536C244.536 96.304 244.392 96.132 244.192 96.02C244 95.908 243.748 95.852 243.436 95.852C243.084 95.852 242.776 95.928 242.512 96.08C242.248 96.232 242.044 96.444 241.9 96.716C241.756 96.988 241.684 97.308 241.684 97.676V101H240.712ZM250.112 103.268C249.608 103.268 249.132 103.2 248.684 103.064C248.244 102.936 247.852 102.74 247.508 102.476L247.832 101.768C248.072 101.936 248.308 102.072 248.54 102.176C248.78 102.288 249.024 102.368 249.272 102.416C249.528 102.464 249.792 102.488 250.064 102.488C250.632 102.488 251.06 102.336 251.348 102.032C251.644 101.728 251.792 101.288 251.792 100.712V99.356H251.912C251.792 99.82 251.536 100.188 251.144 100.46C250.76 100.732 250.308 100.868 249.788 100.868C249.252 100.868 248.788 100.748 248.396 100.508C248.004 100.26 247.7 99.916 247.484 99.476C247.276 99.036 247.172 98.528 247.172 97.952C247.172 97.376 247.276 96.872 247.484 96.44C247.7 96 248.004 95.66 248.396 95.42C248.788 95.18 249.252 95.06 249.788 95.06C250.316 95.06 250.772 95.196 251.156 95.468C251.54 95.732 251.788 96.092 251.9 96.548H251.792V95.168H252.74V100.58C252.74 101.172 252.64 101.668 252.44 102.068C252.248 102.468 251.956 102.768 251.564 102.968C251.172 103.168 250.688 103.268 250.112 103.268ZM249.968 100.076C250.528 100.076 250.972 99.884 251.3 99.5C251.628 99.116 251.792 98.6 251.792 97.952C251.792 97.304 251.628 96.792 251.3 96.416C250.972 96.032 250.528 95.84 249.968 95.84C249.416 95.84 248.976 96.032 248.648 96.416C248.32 96.792 248.156 97.304 248.156 97.952C248.156 98.6 248.32 99.116 248.648 99.5C248.976 99.884 249.416 100.076 249.968 100.076ZM259.481 101.108C259.081 101.108 258.721 101.032 258.401 100.88C258.089 100.72 257.841 100.504 257.657 100.232C257.473 99.96 257.381 99.656 257.381 99.32C257.381 98.888 257.489 98.548 257.705 98.3C257.929 98.052 258.293 97.876 258.797 97.772C259.309 97.668 260.005 97.616 260.885 97.616H261.425V98.252H260.897C260.409 98.252 260.001 98.268 259.673 98.3C259.345 98.332 259.085 98.388 258.893 98.468C258.701 98.548 258.565 98.652 258.485 98.78C258.405 98.908 258.365 99.068 258.365 99.26C258.365 99.588 258.477 99.856 258.701 100.064C258.933 100.272 259.245 100.376 259.637 100.376C259.957 100.376 260.237 100.3 260.477 100.148C260.725 99.996 260.917 99.788 261.053 99.524C261.197 99.26 261.269 98.956 261.269 98.612V97.244C261.269 96.748 261.169 96.392 260.969 96.176C260.769 95.952 260.441 95.84 259.985 95.84C259.633 95.84 259.293 95.892 258.965 95.996C258.637 96.092 258.301 96.252 257.957 96.476L257.621 95.768C257.829 95.624 258.065 95.5 258.329 95.396C258.593 95.284 258.869 95.2 259.157 95.144C259.445 95.088 259.721 95.06 259.985 95.06C260.489 95.06 260.905 95.144 261.233 95.312C261.561 95.472 261.805 95.72 261.965 96.056C262.125 96.384 262.205 96.808 262.205 97.328V101H261.293V99.644H261.401C261.337 99.948 261.213 100.208 261.029 100.424C260.853 100.64 260.633 100.808 260.369 100.928C260.105 101.048 259.809 101.108 259.481 101.108ZM266.961 101.108C266.433 101.108 265.977 100.972 265.593 100.7C265.217 100.428 264.965 100.064 264.837 99.608H264.957V101H264.009V92.54H264.981V96.524H264.837C264.973 96.076 265.229 95.72 265.605 95.456C265.981 95.192 266.433 95.06 266.961 95.06C267.489 95.06 267.945 95.184 268.329 95.432C268.713 95.672 269.009 96.02 269.217 96.476C269.433 96.924 269.541 97.46 269.541 98.084C269.541 98.7 269.433 99.236 269.217 99.692C269.009 100.14 268.709 100.488 268.317 100.736C267.933 100.984 267.481 101.108 266.961 101.108ZM266.757 100.328C267.309 100.328 267.745 100.136 268.065 99.752C268.393 99.36 268.557 98.804 268.557 98.084C268.557 97.356 268.393 96.8 268.065 96.416C267.745 96.032 267.309 95.84 266.757 95.84C266.213 95.84 265.777 96.032 265.449 96.416C265.121 96.8 264.957 97.356 264.957 98.084C264.957 98.804 265.121 99.36 265.449 99.752C265.777 100.136 266.213 100.328 266.757 100.328ZM273.429 101.108C272.861 101.108 272.369 100.984 271.953 100.736C271.537 100.488 271.213 100.14 270.981 99.692C270.757 99.236 270.645 98.7 270.645 98.084C270.645 97.468 270.757 96.936 270.981 96.488C271.213 96.032 271.537 95.68 271.953 95.432C272.369 95.184 272.861 95.06 273.429 95.06C273.997 95.06 274.489 95.184 274.905 95.432C275.321 95.68 275.641 96.032 275.865 96.488C276.097 96.936 276.213 97.468 276.213 98.084C276.213 98.7 276.097 99.236 275.865 99.692C275.641 100.14 275.321 100.488 274.905 100.736C274.489 100.984 273.997 101.108 273.429 101.108ZM273.429 100.328C273.981 100.328 274.417 100.136 274.737 99.752C275.065 99.36 275.229 98.8 275.229 98.072C275.229 97.352 275.065 96.8 274.737 96.416C274.417 96.032 273.981 95.84 273.429 95.84C272.885 95.84 272.449 96.032 272.121 96.416C271.793 96.8 271.629 97.352 271.629 98.072C271.629 98.8 271.793 99.36 272.121 99.752C272.449 100.136 272.885 100.328 273.429 100.328ZM279.737 101.108C279.265 101.108 278.873 101.024 278.561 100.856C278.257 100.68 278.025 100.42 277.865 100.076C277.713 99.732 277.637 99.304 277.637 98.792V95.168H278.609V98.78C278.609 99.124 278.653 99.412 278.741 99.644C278.837 99.868 278.985 100.036 279.185 100.148C279.385 100.252 279.633 100.304 279.929 100.304C280.265 100.304 280.557 100.228 280.805 100.076C281.053 99.924 281.249 99.712 281.393 99.44C281.537 99.168 281.609 98.848 281.609 98.48V95.168H282.581V101H281.633V99.656H281.789C281.629 100.128 281.365 100.488 280.997 100.736C280.637 100.984 280.217 101.108 279.737 101.108ZM286.739 101.108C286.051 101.108 285.535 100.924 285.191 100.556C284.847 100.188 284.675 99.664 284.675 98.984V95.924H283.535V95.168H284.675V93.38H285.647V95.168H287.495V95.924H285.647V98.888C285.647 99.344 285.743 99.692 285.935 99.932C286.127 100.164 286.439 100.28 286.871 100.28C286.999 100.28 287.127 100.264 287.255 100.232C287.383 100.2 287.499 100.168 287.603 100.136L287.771 100.88C287.667 100.936 287.515 100.988 287.315 101.036C287.115 101.084 286.923 101.108 286.739 101.108ZM204.102 117.108C203.518 117.108 203.014 116.98 202.59 116.724C202.166 116.468 201.838 116.112 201.606 115.656C201.382 115.192 201.27 114.656 201.27 114.048C201.27 113.432 201.382 112.9 201.606 112.452C201.838 112.004 202.166 111.66 202.59 111.42C203.014 111.18 203.518 111.06 204.102 111.06C204.462 111.06 204.818 111.124 205.17 111.252C205.522 111.38 205.814 111.56 206.046 111.792L205.71 112.5C205.478 112.276 205.222 112.112 204.942 112.008C204.67 111.904 204.41 111.852 204.162 111.852C203.554 111.852 203.086 112.044 202.758 112.428C202.43 112.804 202.266 113.348 202.266 114.06C202.266 114.756 202.43 115.308 202.758 115.716C203.086 116.116 203.554 116.316 204.162 116.316C204.41 116.316 204.67 116.264 204.942 116.16C205.222 116.056 205.478 115.888 205.71 115.656L206.046 116.364C205.814 116.596 205.518 116.78 205.158 116.916C204.806 117.044 204.454 117.108 204.102 117.108ZM208.973 117.108C208.573 117.108 208.213 117.032 207.893 116.88C207.581 116.72 207.333 116.504 207.149 116.232C206.965 115.96 206.873 115.656 206.873 115.32C206.873 114.888 206.981 114.548 207.197 114.3C207.421 114.052 207.785 113.876 208.289 113.772C208.801 113.668 209.497 113.616 210.377 113.616H210.917V114.252H210.389C209.901 114.252 209.493 114.268 209.165 114.3C208.837 114.332 208.577 114.388 208.385 114.468C208.193 114.548 208.057 114.652 207.977 114.78C207.897 114.908 207.857 115.068 207.857 115.26C207.857 115.588 207.969 115.856 208.193 116.064C208.425 116.272 208.737 116.376 209.129 116.376C209.449 116.376 209.729 116.3 209.969 116.148C210.217 115.996 210.409 115.788 210.545 115.524C210.689 115.26 210.761 114.956 210.761 114.612V113.244C210.761 112.748 210.661 112.392 210.461 112.176C210.261 111.952 209.933 111.84 209.477 111.84C209.125 111.84 208.785 111.892 208.457 111.996C208.129 112.092 207.793 112.252 207.449 112.476L207.113 111.768C207.321 111.624 207.557 111.5 207.821 111.396C208.085 111.284 208.361 111.2 208.649 111.144C208.937 111.088 209.213 111.06 209.477 111.06C209.981 111.06 210.397 111.144 210.725 111.312C211.053 111.472 211.297 111.72 211.457 112.056C211.617 112.384 211.697 112.808 211.697 113.328V117H210.785V115.644H210.893C210.829 115.948 210.705 116.208 210.521 116.424C210.345 116.64 210.125 116.808 209.861 116.928C209.597 117.048 209.301 117.108 208.973 117.108ZM213.501 117V111.168H214.449V112.548H214.329C214.465 112.076 214.701 111.72 215.037 111.48C215.373 111.232 215.817 111.088 216.369 111.048L216.717 111.012L216.789 111.852L216.177 111.924C215.633 111.972 215.213 112.148 214.917 112.452C214.629 112.748 214.485 113.156 214.485 113.676V117H213.501ZM220.359 117.108C219.743 117.108 219.211 116.988 218.763 116.748C218.323 116.5 217.979 116.152 217.731 115.704C217.491 115.256 217.371 114.72 217.371 114.096C217.371 113.488 217.491 112.96 217.731 112.512C217.971 112.056 218.299 111.7 218.715 111.444C219.139 111.188 219.627 111.06 220.179 111.06C220.707 111.06 221.159 111.176 221.535 111.408C221.911 111.64 222.199 111.968 222.399 112.392C222.607 112.816 222.711 113.324 222.711 113.916V114.288H218.115V113.652H222.063L221.871 113.808C221.871 113.168 221.727 112.672 221.439 112.32C221.159 111.96 220.747 111.78 220.203 111.78C219.795 111.78 219.447 111.876 219.159 112.068C218.879 112.252 218.667 112.512 218.523 112.848C218.379 113.176 218.307 113.56 218.307 114V114.072C218.307 114.56 218.383 114.972 218.535 115.308C218.695 115.644 218.931 115.9 219.243 116.076C219.555 116.244 219.927 116.328 220.359 116.328C220.703 116.328 221.035 116.276 221.355 116.172C221.683 116.06 221.991 115.88 222.279 115.632L222.615 116.316C222.351 116.556 222.015 116.748 221.607 116.892C221.199 117.036 220.783 117.108 220.359 117.108ZM226.746 117.108C226.13 117.108 225.598 116.988 225.15 116.748C224.71 116.5 224.366 116.152 224.118 115.704C223.878 115.256 223.758 114.72 223.758 114.096C223.758 113.488 223.878 112.96 224.118 112.512C224.358 112.056 224.686 111.7 225.102 111.444C225.526 111.188 226.014 111.06 226.566 111.06C227.094 111.06 227.546 111.176 227.922 111.408C228.298 111.64 228.586 111.968 228.786 112.392C228.994 112.816 229.098 113.324 229.098 113.916V114.288H224.502V113.652H228.45L228.258 113.808C228.258 113.168 228.114 112.672 227.826 112.32C227.546 111.96 227.134 111.78 226.59 111.78C226.182 111.78 225.834 111.876 225.546 112.068C225.266 112.252 225.054 112.512 224.91 112.848C224.766 113.176 224.694 113.56 224.694 114V114.072C224.694 114.56 224.77 114.972 224.922 115.308C225.082 115.644 225.318 115.9 225.63 116.076C225.942 116.244 226.314 116.328 226.746 116.328C227.09 116.328 227.422 116.276 227.742 116.172C228.07 116.06 228.378 115.88 228.666 115.632L229.002 116.316C228.738 116.556 228.402 116.748 227.994 116.892C227.586 117.036 227.17 117.108 226.746 117.108ZM230.505 117V111.168H231.453V112.548H231.333C231.469 112.076 231.705 111.72 232.041 111.48C232.377 111.232 232.821 111.088 233.373 111.048L233.721 111.012L233.793 111.852L233.181 111.924C232.637 111.972 232.217 112.148 231.921 112.452C231.633 112.748 231.489 113.156 231.489 113.676V117H230.505ZM236.715 117.108C236.411 117.108 236.115 117.076 235.827 117.012C235.547 116.956 235.283 116.876 235.035 116.772C234.795 116.66 234.587 116.528 234.411 116.376L234.723 115.692C234.915 115.844 235.123 115.972 235.347 116.076C235.571 116.172 235.799 116.244 236.031 116.292C236.263 116.34 236.499 116.364 236.739 116.364C237.195 116.364 237.539 116.28 237.771 116.112C238.003 115.944 238.119 115.716 238.119 115.428C238.119 115.204 238.043 115.028 237.891 114.9C237.739 114.764 237.499 114.66 237.171 114.588L236.079 114.348C235.575 114.244 235.199 114.064 234.951 113.808C234.711 113.552 234.591 113.22 234.591 112.812C234.591 112.452 234.683 112.144 234.867 111.888C235.059 111.624 235.327 111.42 235.671 111.276C236.015 111.132 236.415 111.06 236.871 111.06C237.143 111.06 237.403 111.088 237.651 111.144C237.899 111.2 238.131 111.284 238.347 111.396C238.571 111.5 238.763 111.632 238.923 111.792L238.599 112.476C238.447 112.332 238.275 112.212 238.083 112.116C237.891 112.012 237.691 111.936 237.483 111.888C237.283 111.832 237.079 111.804 236.871 111.804C236.423 111.804 236.083 111.892 235.851 112.068C235.619 112.244 235.503 112.476 235.503 112.764C235.503 112.988 235.575 113.172 235.719 113.316C235.863 113.46 236.087 113.564 236.391 113.628L237.483 113.856C238.003 113.968 238.391 114.148 238.647 114.396C238.911 114.636 239.043 114.964 239.043 115.38C239.043 115.732 238.947 116.04 238.755 116.304C238.563 116.56 238.291 116.76 237.939 116.904C237.595 117.04 237.187 117.108 236.715 117.108ZM243.486 109.716V108.624H244.686V109.716H243.486ZM243.606 117V111.168H244.578V117H243.606ZM246.395 117V111.168H247.343V112.464H247.211C247.379 112 247.651 111.652 248.027 111.42C248.411 111.18 248.851 111.06 249.347 111.06C249.811 111.06 250.195 111.144 250.499 111.312C250.811 111.472 251.043 111.724 251.195 112.068C251.347 112.412 251.423 112.844 251.423 113.364V117H250.451V113.424C250.451 113.064 250.403 112.768 250.307 112.536C250.219 112.304 250.075 112.132 249.875 112.02C249.683 111.908 249.431 111.852 249.119 111.852C248.767 111.852 248.459 111.928 248.195 112.08C247.931 112.232 247.727 112.444 247.583 112.716C247.439 112.988 247.367 113.308 247.367 113.676V117H246.395ZM258.638 117.108C257.95 117.108 257.434 116.924 257.09 116.556C256.746 116.188 256.574 115.664 256.574 114.984V111.924H255.434V111.168H256.574V109.38H257.546V111.168H259.394V111.924H257.546V114.888C257.546 115.344 257.642 115.692 257.834 115.932C258.026 116.164 258.338 116.28 258.77 116.28C258.898 116.28 259.026 116.264 259.154 116.232C259.282 116.2 259.398 116.168 259.502 116.136L259.67 116.88C259.566 116.936 259.414 116.988 259.214 117.036C259.014 117.084 258.822 117.108 258.638 117.108ZM260.493 117V111.168H261.441V112.548H261.321C261.457 112.076 261.693 111.72 262.029 111.48C262.365 111.232 262.809 111.088 263.361 111.048L263.709 111.012L263.781 111.852L263.169 111.924C262.625 111.972 262.205 112.148 261.909 112.452C261.621 112.748 261.477 113.156 261.477 113.676V117H260.493ZM266.571 117.108C266.171 117.108 265.811 117.032 265.491 116.88C265.179 116.72 264.931 116.504 264.747 116.232C264.563 115.96 264.471 115.656 264.471 115.32C264.471 114.888 264.579 114.548 264.795 114.3C265.019 114.052 265.383 113.876 265.887 113.772C266.399 113.668 267.095 113.616 267.975 113.616H268.515V114.252H267.987C267.499 114.252 267.091 114.268 266.763 114.3C266.435 114.332 266.175 114.388 265.983 114.468C265.791 114.548 265.655 114.652 265.575 114.78C265.495 114.908 265.455 115.068 265.455 115.26C265.455 115.588 265.567 115.856 265.791 116.064C266.023 116.272 266.335 116.376 266.727 116.376C267.047 116.376 267.327 116.3 267.567 116.148C267.815 115.996 268.007 115.788 268.143 115.524C268.287 115.26 268.359 114.956 268.359 114.612V113.244C268.359 112.748 268.259 112.392 268.059 112.176C267.859 111.952 267.531 111.84 267.075 111.84C266.723 111.84 266.383 111.892 266.055 111.996C265.727 112.092 265.391 112.252 265.047 112.476L264.711 111.768C264.919 111.624 265.155 111.5 265.419 111.396C265.683 111.284 265.959 111.2 266.247 111.144C266.535 111.088 266.811 111.06 267.075 111.06C267.579 111.06 267.995 111.144 268.323 111.312C268.651 111.472 268.895 111.72 269.055 112.056C269.215 112.384 269.295 112.808 269.295 113.328V117H268.383V115.644H268.491C268.427 115.948 268.303 116.208 268.119 116.424C267.943 116.64 267.723 116.808 267.459 116.928C267.195 117.048 266.899 117.108 266.571 117.108ZM273.318 117.108C272.798 117.108 272.342 116.984 271.95 116.736C271.566 116.488 271.266 116.14 271.05 115.692C270.842 115.236 270.738 114.7 270.738 114.084C270.738 113.46 270.842 112.924 271.05 112.476C271.266 112.02 271.566 111.672 271.95 111.432C272.342 111.184 272.798 111.06 273.318 111.06C273.846 111.06 274.298 111.192 274.674 111.456C275.05 111.72 275.302 112.076 275.43 112.524H275.298V108.54H276.27V117H275.322V115.608H275.442C275.314 116.064 275.058 116.428 274.674 116.7C274.298 116.972 273.846 117.108 273.318 117.108ZM273.522 116.328C274.074 116.328 274.51 116.136 274.83 115.752C275.158 115.36 275.322 114.804 275.322 114.084C275.322 113.356 275.158 112.8 274.83 112.416C274.51 112.032 274.074 111.84 273.522 111.84C272.978 111.84 272.542 112.032 272.214 112.416C271.886 112.8 271.722 113.356 271.722 114.084C271.722 114.804 271.886 115.36 272.214 115.752C272.542 116.136 272.978 116.328 273.522 116.328ZM280.722 117.108C280.106 117.108 279.574 116.988 279.126 116.748C278.686 116.5 278.342 116.152 278.094 115.704C277.854 115.256 277.734 114.72 277.734 114.096C277.734 113.488 277.854 112.96 278.094 112.512C278.334 112.056 278.662 111.7 279.078 111.444C279.502 111.188 279.99 111.06 280.542 111.06C281.07 111.06 281.522 111.176 281.898 111.408C282.274 111.64 282.562 111.968 282.762 112.392C282.97 112.816 283.074 113.324 283.074 113.916V114.288H278.478V113.652H282.426L282.234 113.808C282.234 113.168 282.09 112.672 281.802 112.32C281.522 111.96 281.11 111.78 280.566 111.78C280.158 111.78 279.81 111.876 279.522 112.068C279.242 112.252 279.03 112.512 278.886 112.848C278.742 113.176 278.67 113.56 278.67 114V114.072C278.67 114.56 278.746 114.972 278.898 115.308C279.058 115.644 279.294 115.9 279.606 116.076C279.918 116.244 280.29 116.328 280.722 116.328C281.066 116.328 281.398 116.276 281.718 116.172C282.046 116.06 282.354 115.88 282.642 115.632L282.978 116.316C282.714 116.556 282.378 116.748 281.97 116.892C281.562 117.036 281.146 117.108 280.722 117.108ZM284.325 117V115.776H285.549V117H284.325Z" fill="white"/>
</g>
<defs>
<clipPath id="clip0_648_2610">
<rect width="188" height="145" fill="white" transform="matrix(-1 0 0 1 329 18.0472)"/>
</clipPath>
</defs>
</svg>
