<svg width="286" height="411" viewBox="0 0 286 411" fill="none" xmlns="http://www.w3.org/2000/svg">
<path d="M197.083 153.195C197.083 153.195 219.602 214.934 219.865 280.551C243.436 231.239 260.63 212.369 260.63 212.369L263.293 243.239C263.293 243.239 230.451 333.282 207.439 310.993L197.116 153.195H197.083Z" fill="#D8D8D8"/>
<path d="M85.5726 123.641C85.5726 123.641 22.7493 162.598 26.6285 187.911C29.0612 203.921 29.8502 200.239 30.0803 195.374C30.3433 190.212 31.8555 185.215 34.5184 180.843C40.0084 171.868 51.1858 157.864 71.042 149.514C102.076 136.462 100.366 127.882 100.366 127.882L83.4686 121.669" fill="#442319"/>
<path d="M171.375 64.0068C171.375 64.0068 189.456 115.883 160.165 126.173C130.874 136.462 130.907 127.751 130.907 127.751L136.857 74.1979L156.154 64.0068H171.375Z" fill="#442319"/>
<path d="M76.1377 75.25C76.1377 75.25 52.205 116.935 85.0138 127.225C117.823 137.514 117.79 128.803 117.79 128.803L111.116 75.25L89.4848 65.0589L76.1048 75.25H76.1377Z" fill="#442319"/>
<path d="M131.005 149.941H126.764C118.447 149.941 112.76 151.092 112.76 142.774V131.005C112.76 122.688 119.565 115.883 127.882 115.883C136.199 115.883 143.004 122.688 143.004 131.005V142.774C143.004 151.092 139.322 149.941 131.005 149.941Z" fill="#FFCEB6"/>
<path d="M113.516 123.97C114.239 124.167 142.972 127.093 142.972 127.093V137.744L112.826 127.586L113.516 123.97Z" fill="#D3A08C"/>
<path d="M100.695 144.648L130.545 172.066L155.102 144.648L135.312 138.862L100.695 144.648Z" fill="#FFCEB6"/>
<path d="M107.533 141.361C107.533 141.361 60.9494 143.859 61.4426 154.609C61.5741 157.338 76.4005 181.27 75.9403 209.378C75.9074 212.534 77.4525 219.241 69.9571 238.341C50.3967 288.08 53.0924 395.218 53.0924 395.218C53.0924 395.218 194.585 409.782 217.663 385.783L191.1 153.787C191.1 153.787 165.425 136.627 146.259 141.361L142.807 148.593C139.027 156.549 128.605 158.817 121.767 153.163L107.5 141.361H107.533Z" fill="#D9F2FC"/>
<path d="M99.9059 139.059C99.9059 139.059 66.4724 143.202 69.5955 150.664C72.7186 158.127 105.692 204.348 62.922 264.673L50.0023 406.593C50.0023 406.593 49.1146 411.13 143.629 409.321C143.629 409.321 152.111 344.493 150.303 339.496C148.495 334.499 156.976 406.1 157.436 409.749C157.897 413.398 217.17 407.974 220.72 398.44L192.645 154.05C192.645 154.05 170.816 136.824 156.976 139.092C156.976 139.092 160.987 221.18 144.056 231.601C130.677 202.113 99.9388 139.092 99.9388 139.092L99.9059 139.059Z" fill="#FF7301"/>
<path d="M56.9058 325.787C56.9058 325.787 193.27 308.561 211.877 323.124L214.507 344.296C214.507 344.296 84.4219 331.277 55.6566 345.413L56.9387 325.787H56.9058Z" fill="#FDD235"/>
<path d="M102.996 70.7132H165.392C165.392 70.7132 177.622 128.934 134.194 131.498C96.8815 126.041 94.3173 102.865 94.3173 102.865C94.3173 102.865 80.7401 106.481 77.9129 94.5144C75.0857 82.5481 81.036 77.7813 81.036 77.7813C81.036 77.7813 93.3311 74.0007 97.5061 83.1727C101.681 92.3447 99.8402 92.805 99.8402 92.805L102.963 70.6804L102.996 70.7132Z" fill="#FFCEB6"/>
<path d="M88.3342 97.5714C92.7098 97.5714 96.2569 94.0242 96.2569 89.6486C96.2569 85.273 92.7098 81.7258 88.3342 81.7258C83.9585 81.7258 80.4114 85.273 80.4114 89.6486C80.4114 94.0242 83.9585 97.5714 88.3342 97.5714Z" fill="#E5AF9A"/>
<path d="M151.815 95.1718C155.047 95.1718 157.667 91.5069 157.667 86.9861C157.667 82.4652 155.047 78.8003 151.815 78.8003C148.583 78.8003 145.963 82.4652 145.963 86.9861C145.963 91.5069 148.583 95.1718 151.815 95.1718Z" fill="black"/>
<path d="M119.992 95.1718C123.224 95.1718 125.844 91.5069 125.844 86.9861C125.844 82.4652 123.224 78.8003 119.992 78.8003C116.76 78.8003 114.141 82.4652 114.141 86.9861C114.141 91.5069 116.76 95.1718 119.992 95.1718Z" fill="black"/>
<path d="M118.283 85.7368C119.735 85.7368 120.913 84.5594 120.913 83.1069C120.913 81.6544 119.735 80.4769 118.283 80.4769C116.83 80.4769 115.653 81.6544 115.653 83.1069C115.653 84.5594 116.83 85.7368 118.283 85.7368Z" fill="white"/>
<path d="M73.8034 75.7431C73.8034 75.7431 67.7874 39.1536 102.108 11.9335C133.931 -13.3142 176.109 29.7844 180.646 55.3937C181.205 58.5825 183.243 61.1467 186.004 62.659C193.335 66.7025 182.388 74.0993 177.326 77.0909C175.879 77.9457 174.268 78.4716 172.592 78.636C161.94 79.5565 118.743 82.8768 103.555 77.2553C101.845 76.6307 100.037 76.4005 98.2292 76.6307C85.2767 78.2086 74.0335 76.7622 74.0335 76.7622L73.7706 75.7759H73.8034V75.7431Z" fill="#E5B833"/>
<path d="M73.0802 72.9154C73.0802 72.9154 67.0641 36.3259 101.385 9.10576C133.208 -16.1419 175.386 26.9567 179.923 52.566C180.481 55.7548 182.52 58.319 185.281 59.8313C192.612 63.8748 181.665 71.2716 176.602 74.2632C175.156 75.118 173.545 75.6439 171.868 75.8083C161.217 76.7288 118.02 80.0491 102.832 74.4276C101.122 73.803 99.3141 73.5729 97.506 73.803C84.5534 75.381 73.3103 73.9345 73.3103 73.9345L73.0473 72.9482L73.0802 72.9154Z" fill="#FFD03A"/>
<path d="M101.747 8.48118C101.747 8.48118 144.55 18.2778 136.89 56.4452C136.89 56.4452 112.431 13.5767 99.9059 10.355L101.747 8.48118Z" fill="#C39227"/>
<path d="M100.761 9.30328C99.8073 9.17178 113.154 -5.49029 129.394 2.23524C145.634 9.96077 159.935 35.2085 163.485 62.856C144.681 63.9737 139.52 64.3025 139.52 64.3025C139.52 64.3025 123.937 12.1962 100.761 9.30328Z" fill="#E5B833"/>
<path d="M230.944 303.169L153.524 282.097C145.996 280.058 141.952 273.122 144.55 266.744L191.593 152.176C193.894 146.555 201.324 144.188 207.997 146.818L277.33 174.169C283.215 176.503 286.502 182.684 284.628 187.977L246.625 295.51C244.521 301.46 237.486 304.912 230.911 303.136L230.944 303.169Z" fill="#0061ED"/>
<path d="M125.515 272.399C137.81 270.689 191.001 260.564 157.502 274.897C183.966 274.897 207.57 301.591 161.973 303.63L130.216 298.008C129.099 298.008 128.375 302.841 128.145 301.756L122.524 272.037C122.294 270.755 124.2 272.563 125.515 272.399Z" fill="#FFCEB6"/>
<path d="M49.7064 274.963C49.7064 274.963 87.8738 193.073 57.8593 160.888C57.8593 160.888 46.1559 151.782 16.7003 232.917C-12.7554 314.051 2.56421 325.689 18.4098 325.524C73.8035 324.966 130.315 301.099 130.315 301.099L125.154 266.81L49.6735 274.963H49.7064Z" fill="#D8D8D8"/>
<path d="M268.158 218.813C274.404 217.629 279.73 223.415 278.152 229.596C275.916 238.34 271.511 249.353 263.128 253.035C249.945 258.854 234.988 225.026 268.158 218.813Z" fill="#FFCEB6"/>
<path d="M262.832 174.268L218.32 158.357C213.849 156.779 211.811 152.275 213.751 148.429L214.342 147.245C216.216 143.498 221.147 141.821 225.388 143.399L267.862 159.113C271.84 160.592 274.108 164.8 272.925 168.614L272.563 169.83C271.347 173.742 267.007 175.781 262.832 174.301V174.268Z" fill="#0E3059"/>
<path d="M136.232 95.2047C136.232 95.2047 141.295 99.2812 141.295 101.089C141.295 102.897 137.81 103.555 137.81 103.555" stroke="black" stroke-width="0.493119" stroke-miterlimit="10"/>
<path d="M148.889 112.53C148.889 112.53 141.591 122.819 126.699 112.53" stroke="black" stroke-width="0.821865" stroke-miterlimit="10"/>
<path d="M150.04 86.1968C151.492 86.1968 152.67 85.0194 152.67 83.5669C152.67 82.1144 151.492 80.9369 150.04 80.9369C148.587 80.9369 147.41 82.1144 147.41 83.5669C147.41 85.0194 148.587 86.1968 150.04 86.1968Z" fill="white"/>
</svg>
