<svg width="34" height="34" viewBox="0 0 34 34" fill="none" xmlns="http://www.w3.org/2000/svg">
<g clip-path="url(#clip0_648_5311)">
<g filter="url(#filter0_i_648_5311)">
<rect width="34" height="34" rx="17" fill="#58CC02"/>
</g>
<g clip-path="url(#clip1_648_5311)">
<path d="M26.4968 22.1278C26.4968 22.1278 29.4101 30.2395 29.4441 38.8607C32.4935 32.3818 34.7179 29.9025 34.7179 29.9025L35.0624 33.9584C35.0624 33.9584 30.8136 45.7889 27.8365 42.8604L26.501 22.1278H26.4968Z" fill="#D8D8D8"/>
<path d="M12.0706 18.2448C12.0706 18.2448 3.94307 23.3633 4.44493 26.689C4.75965 28.7925 4.86172 28.3088 4.89149 27.6696C4.92551 26.9914 5.12115 26.3348 5.46565 25.7604C6.17589 24.5812 7.62192 22.7413 10.1907 21.6442C14.2056 19.9293 13.9844 18.802 13.9844 18.802L11.7984 17.9857" fill="#442319"/>
<path d="M23.1709 10.4097C23.1709 10.4097 25.5101 17.2255 21.7207 18.5775C17.9313 19.9293 17.9355 18.7848 17.9355 18.7848L18.7053 11.7486L21.2018 10.4097H23.1709Z" fill="#442319"/>
<path d="M10.85 11.8869C10.85 11.8869 7.75382 17.3637 11.9983 18.7157C16.2429 20.0676 16.2386 18.923 16.2386 18.923L15.3752 11.8869L12.5767 10.5479L10.8458 11.8869H10.85Z" fill="#442319"/>
<path d="M17.9482 21.7003H17.3995C16.3236 21.7003 15.5878 21.8515 15.5878 20.7586V19.2124C15.5878 18.1196 16.4682 17.2255 17.5442 17.2255C18.6201 17.2255 19.5005 18.1196 19.5005 19.2124V20.7586C19.5005 21.8515 19.0242 21.7003 17.9482 21.7003Z" fill="#FFCEB6"/>
<path d="M15.6856 18.288C15.7792 18.3139 19.4964 18.6983 19.4964 18.6983V20.0977L15.5964 18.7631L15.6856 18.288Z" fill="#D3A08C"/>
<path d="M14.027 21.0048L17.8887 24.6072L21.0656 21.0048L18.5054 20.2446L14.027 21.0048Z" fill="#FFCEB6"/>
<path d="M14.9116 20.573C14.9116 20.573 8.88504 20.9012 8.94885 22.3136C8.96586 22.6722 10.884 25.8165 10.8244 29.5095C10.8202 29.9242 11.0201 30.8054 10.0504 33.3149C7.51983 39.85 7.86858 53.9265 7.86858 53.9265C7.86858 53.9265 26.1736 55.84 29.1592 52.6868L25.7227 22.2056C25.7227 22.2056 22.4011 19.951 19.9216 20.573L19.475 21.5232C18.986 22.5685 17.6377 22.8665 16.7531 22.1236L14.9073 20.573H14.9116Z" fill="#D9F2FC"/>
<path d="M13.9249 20.2705C13.9249 20.2705 9.5996 20.8148 10.0036 21.7953C10.4077 22.7758 14.6735 28.8486 9.14028 36.7745L7.46885 55.421C7.46885 55.421 7.35401 56.0171 19.5814 55.7794C19.5814 55.7794 20.6787 47.2618 20.4448 46.6053C20.2109 45.9488 21.3081 55.3562 21.3676 55.8356C21.4273 56.315 29.0954 55.6024 29.5547 54.3498L25.9226 22.2401C25.9226 22.2401 23.0986 19.9769 21.3081 20.2748C21.3081 20.2748 21.827 31.0601 19.6366 32.4293C17.9058 28.555 13.9292 20.2748 13.9292 20.2748L13.9249 20.2705Z" fill="#FF7301"/>
<path d="M14.3247 11.2908H22.3969C22.3969 11.2908 23.9791 18.9403 18.3608 19.2771C13.5336 18.5602 13.2019 15.5151 13.2019 15.5151C13.2019 15.5151 11.4454 15.9902 11.0797 14.418C10.7139 12.8458 11.4837 12.2195 11.4837 12.2195C11.4837 12.2195 13.0743 11.7227 13.6144 12.9278C14.1546 14.1329 13.9164 14.1934 13.9164 14.1934L14.3204 11.2865L14.3247 11.2908Z" fill="#FFCEB6"/>
<path d="M12.4279 14.8196C12.9939 14.8196 13.4528 14.3535 13.4528 13.7786C13.4528 13.2037 12.9939 12.7377 12.4279 12.7377C11.8618 12.7377 11.4029 13.2037 11.4029 13.7786C11.4029 14.3535 11.8618 14.8196 12.4279 14.8196Z" fill="#E5AF9A"/>
<path d="M20.6404 14.5043C21.0585 14.5043 21.3975 14.0228 21.3975 13.4288C21.3975 12.8349 21.0585 12.3533 20.6404 12.3533C20.2223 12.3533 19.8833 12.8349 19.8833 13.4288C19.8833 14.0228 20.2223 14.5043 20.6404 14.5043Z" fill="black"/>
<path d="M16.5234 14.5043C16.9416 14.5043 17.2805 14.0228 17.2805 13.4288C17.2805 12.8349 16.9416 12.3533 16.5234 12.3533C16.1053 12.3533 15.7665 12.8349 15.7665 13.4288C15.7665 14.0228 16.1053 14.5043 16.5234 14.5043Z" fill="black"/>
<path d="M16.3023 13.2647C16.4902 13.2647 16.6426 13.11 16.6426 12.9192C16.6426 12.7283 16.4902 12.5736 16.3023 12.5736C16.1144 12.5736 15.9621 12.7283 15.9621 12.9192C15.9621 13.11 16.1144 13.2647 16.3023 13.2647Z" fill="white"/>
<path d="M10.548 11.9517C10.548 11.9517 9.76969 7.1443 14.2098 3.56793C18.3267 0.250717 23.7833 5.91331 24.3703 9.27803C24.4426 9.697 24.7063 10.0339 25.0634 10.2326C26.0119 10.7639 24.5956 11.7357 23.9408 12.1288C23.7536 12.2411 23.5452 12.3102 23.3283 12.3318C21.9503 12.4527 16.3618 12.889 14.397 12.1504C14.1757 12.0683 13.9418 12.038 13.708 12.0683C12.0323 12.2756 10.5778 12.0856 10.5778 12.0856L10.5437 11.956H10.548V11.9517Z" fill="#E5B833"/>
<path d="M10.4544 11.5801C10.4544 11.5801 9.67611 6.77272 14.1162 3.19635C18.2332 -0.120862 23.6898 5.54173 24.2767 8.90645C24.3489 9.32542 24.6127 9.66232 24.9699 9.86102C25.9183 10.3923 24.5021 11.3641 23.8471 11.7572C23.66 11.8695 23.4516 11.9386 23.2347 11.9602C21.8567 12.0811 16.2683 12.5174 14.3034 11.7788C14.0822 11.6967 13.8483 11.6665 13.6144 11.6967C11.9387 11.904 10.4842 11.714 10.4842 11.714L10.4502 11.5844L10.4544 11.5801Z" fill="#FFD03A"/>
<path d="M14.1631 3.11432C14.1631 3.11432 19.7005 4.40147 18.7095 9.41616C18.7095 9.41616 15.5452 3.7838 13.9249 3.36051L14.1631 3.11432Z" fill="#C39227"/>
<path d="M14.0355 3.22232C13.9121 3.20504 15.6388 1.27864 17.7398 2.29367C19.8408 3.3087 21.6909 6.62592 22.1502 10.2584C19.7175 10.4053 19.0498 10.4485 19.0498 10.4485C19.0498 10.4485 17.0338 3.60241 14.0355 3.22232Z" fill="#E5B833"/>
<path d="M30.8774 41.8324L20.8615 39.0638C19.8876 38.7959 19.3644 37.8846 19.7005 37.0466L25.7865 21.9939C26.0842 21.2554 27.0454 20.9444 27.9087 21.2899L36.8784 24.8835C37.6397 25.1902 38.0649 26.0023 37.8225 26.6977L32.906 40.8261C32.6338 41.6079 31.7237 42.0614 30.8731 41.8281L30.8774 41.8324Z" fill="#0061ED"/>
<path d="M7.43057 38.1266C7.43057 38.1266 12.3683 27.3673 8.48531 23.1386C8.48531 23.1386 6.97124 21.9422 3.16055 32.6023C-0.650154 43.2622 1.33175 44.7913 3.38171 44.7696C10.548 44.6963 17.859 41.5605 17.859 41.5605L17.1913 37.0554L7.42631 38.1266H7.43057Z" fill="#D8D8D8"/>
<path d="M35.6918 30.7491C36.4998 30.5936 37.1889 31.3538 36.9847 32.1659C36.6954 33.3147 36.1256 34.7617 35.041 35.2455C33.3356 36.01 31.4006 31.5654 35.6918 30.7491Z" fill="#FFCEB6"/>
<path d="M35.0027 24.8965L29.2442 22.806C28.6658 22.5987 28.4021 22.007 28.6531 21.5016L28.7295 21.3461C28.972 20.8538 29.6099 20.6334 30.1586 20.8408L35.6535 22.9054C36.1681 23.0997 36.4615 23.6526 36.3085 24.1537L36.2616 24.3134C36.1043 24.8274 35.5429 25.0953 35.0027 24.9009V24.8965Z" fill="#0E3059"/>
<path d="M18.6244 14.5087C18.6244 14.5087 19.2794 15.0443 19.2794 15.2818C19.2794 15.5193 18.8285 15.6058 18.8285 15.6058" stroke="black" stroke-width="0.2" stroke-miterlimit="10"/>
<path d="M20.2618 16.785C20.2618 16.785 19.3177 18.1368 17.3911 16.785" stroke="black" stroke-width="0.2" stroke-miterlimit="10"/>
<path d="M20.4108 13.3251C20.5986 13.3251 20.751 13.1704 20.751 12.9796C20.751 12.7887 20.5986 12.634 20.4108 12.634C20.2228 12.634 20.0706 12.7887 20.0706 12.9796C20.0706 13.1704 20.2228 13.3251 20.4108 13.3251Z" fill="white"/>
</g>
</g>
<defs>
<filter id="filter0_i_648_5311" x="0" y="-2" width="34" height="36" filterUnits="userSpaceOnUse" color-interpolation-filters="sRGB">
<feFlood flood-opacity="0" result="BackgroundImageFix"/>
<feBlend mode="normal" in="SourceGraphic" in2="BackgroundImageFix" result="shape"/>
<feColorMatrix in="SourceAlpha" type="matrix" values="0 0 0 0 0 0 0 0 0 0 0 0 0 0 0 0 0 0 127 0" result="hardAlpha"/>
<feOffset dy="-2"/>
<feGaussianBlur stdDeviation="1"/>
<feComposite in2="hardAlpha" operator="arithmetic" k2="-1" k3="1"/>
<feColorMatrix type="matrix" values="0 0 0 0 0 0 0 0 0 0 0 0 0 0 0 0 0 0 0.25 0"/>
<feBlend mode="normal" in2="shape" result="effect1_innerShadow_648_5311"/>
</filter>
<clipPath id="clip0_648_5311">
<rect width="34" height="34" rx="17" fill="white"/>
</clipPath>
<clipPath id="clip1_648_5311">
<rect width="37" height="54" fill="white" transform="translate(1 2)"/>
</clipPath>
</defs>
</svg>
