<svg width="82" height="80" viewBox="0 0 82 80" fill="none" xmlns="http://www.w3.org/2000/svg">
<g clip-path="url(#clip0_578_9607)">
<path d="M69.764 14.6335H61.0531C60.8347 14.6335 60.6204 14.7275 60.4652 14.8948C60.3127 15.0592 60.2234 15.2866 60.2234 15.52V17.9871H71.0265L70.5787 15.3615C70.5072 14.9417 70.1624 14.6335 69.764 14.6335Z" fill="#FF7301"/>
<path d="M60.2234 46.321H75.8676L71.2641 19.3711H60.2234V46.321Z" fill="#FF7301"/>
<path d="M60.2234 19.371H71.2641L71.0265 17.9871H60.2234V19.371Z" fill="#FF7301"/>
<path d="M75.9748 46.321H59.9721L30.4971 22.3504C30.2471 22.1478 29.9105 22.1126 29.6289 22.2608C29.3459 22.4105 29.1659 22.7202 29.1659 23.0548V44.8857L1.46031 22.3504C1.21028 22.1478 0.872344 22.1126 0.592101 22.2608C0.309111 22.4105 0.12915 22.7202 0.12915 23.0548V79.115C0.12915 79.3484 0.21707 79.5773 0.372303 79.7431C0.526162 79.9075 0.740465 80.0014 0.95889 80.0014H81.1703C81.4162 80.0014 81.647 79.8855 81.8049 79.6859C81.9629 79.4848 82.0289 79.2236 81.9863 78.9653L76.7894 47.0578C76.7207 46.6322 76.3773 46.324 75.9734 46.324L75.9748 46.321ZM19.977 53.5769C19.977 53.7824 19.9042 53.9747 19.7668 54.12C19.6308 54.2653 19.4508 54.3445 19.2599 54.3445H8.50348C8.31253 54.3445 8.12982 54.2638 7.99519 54.12C7.86194 53.9761 7.78501 53.7795 7.78501 53.5769V50.1985C7.78501 49.9974 7.86194 49.7993 7.99519 49.6555C8.12982 49.5146 8.31253 49.4324 8.50348 49.4324H19.2599C19.4508 49.4324 19.6308 49.5131 19.7668 49.6584C19.9028 49.8022 19.977 49.9959 19.977 50.1985V53.5769ZM48.9107 53.5769C48.9107 53.7824 48.8365 53.9747 48.7005 54.12C48.5645 54.2653 48.3846 54.3445 48.1922 54.3445H37.4358C37.2463 54.3445 37.0594 54.2638 36.9289 54.12C36.7929 53.9761 36.716 53.7795 36.716 53.5769V50.1985C36.716 49.9974 36.7929 49.7993 36.9289 49.6555C37.0608 49.5146 37.2463 49.4324 37.4358 49.4324H48.1922C48.3846 49.4324 48.5645 49.5131 48.7005 49.6584C48.8352 49.8022 48.9107 49.9959 48.9107 50.1985V53.5769Z" fill="#EAEAEA"/>
<path d="M8.50338 49.4324C8.31243 49.4324 8.12972 49.516 7.99509 49.6554C7.86184 49.7993 7.78491 49.9974 7.78491 50.1985V53.5769C7.78491 53.7795 7.86184 53.9761 7.99509 54.12C8.12972 54.2623 8.31243 54.3445 8.50338 54.3445H19.2598C19.4507 54.3445 19.6307 54.2652 19.7667 54.12C19.9027 53.9747 19.9769 53.7824 19.9769 53.5769V50.1985C19.9769 49.9959 19.9041 49.8007 19.7667 49.6584C19.6307 49.5131 19.4507 49.4324 19.2598 49.4324H8.50338Z" fill="#FF7301"/>
<path d="M37.4359 49.4324C37.2463 49.4324 37.0595 49.516 36.929 49.6554C36.793 49.7993 36.7161 49.9974 36.7161 50.1985V53.5769C36.7161 53.7795 36.793 53.9761 36.929 54.12C37.0609 54.2623 37.2463 54.3445 37.4359 54.3445H48.1923C48.3846 54.3445 48.5646 54.2652 48.7006 54.12C48.8352 53.9747 48.9108 53.7824 48.9108 53.5769V50.1985C48.9108 49.9959 48.8366 49.8007 48.7006 49.6584C48.5646 49.5131 48.3846 49.4324 48.1923 49.4324H37.4359Z" fill="#FF7301"/>
<path d="M0.0109899 19.3241L28.2125 42.2395L28.2002 38.952L0 16.0381L0.0109899 19.3241Z" fill="#FF7301"/>
<path d="M29.6028 20.2855L57.8016 43.2009L57.7906 39.912L29.5891 16.9966L29.6028 20.2855Z" fill="#FF7301"/>
<path d="M57.9348 1.45735C56.5212 0.556228 54.5677 0 52.4082 0C50.0138 0 47.8707 0.685379 46.4407 1.76408C45.8527 1.70391 45.2386 1.66868 44.6053 1.66868C40.2973 1.66868 36.8025 3.13777 36.8025 4.95028C36.8025 6.7628 40.2973 8.23188 44.6053 8.23188C45.2386 8.23188 45.8527 8.19666 46.4407 8.13796C47.8707 9.21372 50.0138 9.90204 52.4082 9.90204C54.5677 9.90204 56.5226 9.34581 57.9348 8.44469C59.347 9.34581 61.3004 9.90204 63.4599 9.90204C67.7694 9.90204 71.2628 7.68446 71.2628 4.95175C71.2628 2.21904 67.7707 0 63.4599 0C61.3004 0 59.3456 0.556228 57.9348 1.45735Z" fill="#FF7301"/>
</g>
<defs>
<clipPath id="clip0_578_9607">
<rect width="82" height="80" fill="white"/>
</clipPath>
</defs>
</svg>
